<svg xmlns="http://www.w3.org/2000/svg">
  <symbol id="menu" viewBox="0 0 24 24">
    <path d="M4 7H20M4 12H20M4 17H20" fill="none" stroke="currentColor" stroke-linecap="round" stroke-width="2"/>
  </symbol>

  <symbol id="search" viewBox="0 0 24 24">
    <circle cx="10.5" cy="10.5" r="5.5" fill="none" stroke="currentColor" stroke-width="2"/>
    <path d="M15.5 15.5L20 20" fill="none" stroke="currentColor" stroke-linecap="round" stroke-width="2"/>
  </symbol>

  <symbol id="mic" viewBox="0 0 24 24">
    <rect x="8.5" y="3.5" width="7" height="11" rx="3.5" fill="none" stroke="currentColor" stroke-width="2"/>
    <path d="M6 10.5V12a6 6 0 0 0 12 0v-1.5M12 18v3M9 21h6" fill="none" stroke="currentColor" stroke-linecap="round" stroke-width="2"/>
  </symbol>

  <symbol id="theme" viewBox="0 0 24 24">
    <circle cx="12" cy="12" r="7" fill="none" stroke="currentColor" stroke-width="2"/>
    <path d="M12 5a7 7 0 0 0 0 14 7 7 0 0 1 0-14Z" fill="currentColor" stroke="none"/>
  </symbol>

  <symbol id="plus" viewBox="0 0 24 24">
    <path d="M12 5V19M5 12H19" fill="none" stroke="currentColor" stroke-linecap="round" stroke-width="2"/>
  </symbol>

  <symbol id="bell" viewBox="0 0 24 24">
    <path d="M8 17H16M7 17V16L8.5 14.5V10a3.5 3.5 0 1 1 7 0v4.5L17 16v1" fill="none" stroke="currentColor" stroke-linecap="round" stroke-linejoin="round" stroke-width="2"/>
    <path d="M10.5 19a1.5 1.5 0 0 0 3 0" fill="none" stroke="currentColor" stroke-linecap="round" stroke-width="2"/>
  </symbol>

  <symbol id="home" viewBox="0 0 24 24">
    <path d="M4.5 10.5L12 4L19.5 10.5" fill="none" stroke="currentColor" stroke-linecap="round" stroke-linejoin="round" stroke-width="2"/>
    <path d="M7.5 10.5V19H16.5V10.5" fill="none" stroke="currentColor" stroke-linecap="round" stroke-linejoin="round" stroke-width="2"/>
  </symbol>

  <symbol id="shorts" viewBox="0 0 24 24">
    <path d="M10 4.5C11.5 3.6 13.3 4.7 13.3 6.5V8.7L15.7 7.3C17.3 6.4 19.3 7.5 19.3 9.3V12.7C19.3 13.4 18.9 14.1 18.3 14.5L10 19.5C8.4 20.4 6.4 19.3 6.4 17.5V15.3L4 16.7C2.4 17.6 0.4 16.5 0.4 14.7V11.3C0.4 10.6 0.8 9.9 1.4 9.5L10 4.5Z" fill="none" stroke="currentColor" stroke-linejoin="round" stroke-width="1.8" transform="translate(2.15 0)"/>
    <path d="M11 9L15 12L11 15Z" fill="currentColor" stroke="none"/>
  </symbol>

  <symbol id="subscriptions" viewBox="0 0 24 24">
    <path d="M6 6.5H18M4.5 9.5H19.5V17.5H4.5Z" fill="none" stroke="currentColor" stroke-linecap="round" stroke-linejoin="round" stroke-width="2"/>
    <path d="M10 11.5L14.5 13.5L10 15.5Z" fill="currentColor" stroke="none"/>
  </symbol>

  <symbol id="you" viewBox="0 0 24 24">
    <circle cx="12" cy="8" r="3.5" fill="none" stroke="currentColor" stroke-width="2"/>
    <path d="M5.5 19C7.2 15.9 9.4 14.5 12 14.5C14.6 14.5 16.8 15.9 18.5 19" fill="none" stroke="currentColor" stroke-linecap="round" stroke-width="2"/>
  </symbol>

  <symbol id="history" viewBox="0 0 24 24">
    <circle cx="12" cy="12" r="7.5" fill="none" stroke="currentColor" stroke-width="2"/>
    <path d="M12 8V12.5L15 14.5" fill="none" stroke="currentColor" stroke-linecap="round" stroke-linejoin="round" stroke-width="2"/>
  </symbol>

  <symbol id="playlist" viewBox="0 0 24 24">
    <path d="M5 7H14M5 12H14M5 17H11" fill="none" stroke="currentColor" stroke-linecap="round" stroke-width="2"/>
    <path d="M16 10L20 12.5L16 15Z" fill="currentColor" stroke="none"/>
  </symbol>
</svg>
