<svg xmlns="http://www.w3.org/2000/svg" width="1280" height="720" viewBox="0 0 1280 720" role="img" aria-labelledby="title desc">
  <title id="title">Fast Play Mode Safety Guard Double Play preview</title>
  <desc id="desc">preview artwork for the Double Play runtime test.</desc>
  <rect width="1280" height="720" fill="#111827"/>
  <text x="130" y="132" fill="#ecf1f8" font-family="Segoe UI, Arial, sans-serif" font-size="44" font-weight="800">Double Play runtime evidence</text>
  <g fill="none" stroke="#fb8114" stroke-width="8" stroke-linecap="round" stroke-linejoin="round">
    <path d="M276 304c72-94 178-94 250 0"/>
    <path d="M496 276l30 28-34 24"/>
    <path d="M754 416c-72 94-178 94-250 0"/>
    <path d="M534 444l-30-28 34-24"/>
  </g>
  <g font-family="Segoe UI, Arial, sans-serif">
    <rect x="150" y="240" width="230" height="180" rx="22" fill="#0f1724" stroke="#334155"/>
    <text x="198" y="312" fill="#ecf1f8" font-size="28" font-weight="800">Pass 1</text>
    <text x="198" y="362" fill="#9fb1c7" font-size="20">Snapshot state</text>
    <rect x="450" y="240" width="230" height="180" rx="22" fill="#0f1724" stroke="#334155"/>
    <text x="498" y="312" fill="#ecf1f8" font-size="28" font-weight="800">Pass 2</text>
    <text x="498" y="362" fill="#9fb1c7" font-size="20">Compare again</text>
    <rect x="750" y="240" width="380" height="180" rx="22" fill="#2a1b0d" stroke="#fb8114"/>
    <text x="798" y="312" fill="#ffbd7a" font-size="28" font-weight="800">Persistence found</text>
    <text x="798" y="362" fill="#fed7aa" font-size="20">Static state survived play mode</text>
  </g>
  <text x="130" y="688" fill="#64748b" font-family="Segoe UI, Arial, sans-serif" font-size="22">Preview visual</text>
</svg>
