<svg width="64" height="64" viewBox="0 0 64 64" fill="none" xmlns="http://www.w3.org/2000/svg" role="img" aria-hidden="true">
  <rect width="64" height="64" rx="18" fill="#4F46E5"/>
  <path d="M19 38.6c1.95 1.98 4.82 3.27 8.24 3.27 3.1 0 4.58-1.1 4.58-2.47 0-1.74-2.27-2.13-5.02-2.63-3.9-.7-8.76-1.76-8.76-6.92 0-4.26 3.71-7.65 9.75-7.65 4.21 0 7.65 1.3 10.11 3.4l-3.13 3.89c-1.95-1.54-4.31-2.47-7.01-2.47-2.51 0-3.84 1-3.84 2.25 0 1.6 2.34 2.01 5.08 2.51 3.9.7 8.69 1.75 8.69 6.97 0 4.57-3.33 7.97-10.34 7.97-4.47 0-8.41-1.46-11.29-4.14l3.94-3.98Z" fill="white"/>
</svg>
