<svg width="64" height="64" viewBox="0 0 64 64" fill="none" xmlns="http://www.w3.org/2000/svg" role="img" aria-hidden="true">
  <rect width="64" height="64" rx="18" fill="#111111"/>
  <path d="M36 14h6c.2 3.71 2.51 6.26 6 6.59v6.5c-2.42-.12-4.63-.94-6.57-2.35v11.31c0 6.46-4.69 11.45-11.43 11.45-6.19 0-11.2-5.03-11.2-11.24 0-6.2 5.01-11.23 11.2-11.23 1.06 0 2.08.15 3.05.44V33c-.86-.4-1.8-.63-2.8-.63-3.17 0-5.74 2.59-5.74 5.78 0 3.2 2.57 5.78 5.74 5.78 3.27 0 5.67-2.61 5.67-5.78V14Z" fill="#00F2EA"/>
  <path d="M36 17.42c1.34 2.35 3.67 4.09 6.43 4.43v6.43c-2.38-.11-4.56-.9-6.43-2.12v11.02c0 6.46-4.69 11.45-11.43 11.45-3.6 0-6.8-1.7-8.87-4.35 1.86 3.01 5.17 5 8.95 5 6.74 0 11.43-4.99 11.43-11.45V17.42Z" fill="#FF0050"/>
  <path d="M36 14h6c.2 3.71 2.51 6.26 6 6.59v6.5c-2.42-.12-4.63-.94-6.57-2.35v11.31c0 6.46-4.69 11.45-11.43 11.45-1.93 0-3.74-.4-5.38-1.14 1.66.63 3.49.87 5.38.74 5.18-.36 9.12-4.79 9.12-10.09V14Z" fill="white"/>
</svg>
