<svg width="64" height="64" viewBox="0 0 64 64" fill="none" xmlns="http://www.w3.org/2000/svg" role="img" aria-hidden="true">
  <rect width="64" height="64" rx="18" fill="#FF0000"/>
  <path d="M47 32.26c0-2.39-.21-4.8-.62-7.16-.35-2.05-1.94-3.64-3.98-3.99-5.23-.9-10.54-.9-15.77 0-2.04.35-3.63 1.94-3.98 3.99-.41 2.36-.62 4.77-.62 7.16 0 2.39.21 4.8.62 7.16.35 2.05 1.94 3.64 3.98 3.99 5.23.9 10.54.9 15.77 0 2.04-.35 3.63-1.94 3.98-3.99.41-2.36.62-4.77.62-7.16Z" fill="#F9F9F9"/>
  <path d="M29 37.5v-10l8.5 5-8.5 5Z" fill="#FF0000"/>
</svg>
